<?xml version="1.0" encoding="UTF-8"?>
<svg version="1.1" xmlns="http://www.w3.org/2000/svg" width="500" height="500">
<path d="M0 0 C0.94132782 -0.0127597 1.88265564 -0.02551941 2.85250854 -0.03866577 C3.86298248 -0.04089142 4.87345642 -0.04311707 5.91455078 -0.04541016 C6.96007111 -0.05206696 8.00559143 -0.05872375 9.08279419 -0.06558228 C11.29345949 -0.07570243 13.50415531 -0.08039949 15.71484375 -0.08007812 C19.09052084 -0.08444762 22.46488653 -0.12076505 25.84033203 -0.15869141 C27.99006715 -0.16456046 30.13980847 -0.16852926 32.28955078 -0.17041016 C33.29597626 -0.18478119 34.30240173 -0.19915222 35.33932495 -0.21395874 C42.61368033 -0.16672417 46.04443972 1.10010378 51.23486328 6.29052734 C52.60670355 9.97726973 52.36841695 13.84243757 52.34838867 17.72119141 C52.3485347 18.46304688 52.34868073 19.20490234 52.34883118 19.96923828 C52.34813597 22.41490632 52.34036194 24.86049766 52.33251953 27.30615234 C52.33065396 29.00437376 52.32923071 30.70259572 52.32823181 32.40081787 C52.3244176 36.8658599 52.31459667 41.33086929 52.30352783 45.79589844 C52.29329015 50.35399942 52.28872914 54.91210568 52.28369141 59.47021484 C52.27297342 68.41033333 52.25591015 77.35042762 52.23486328 86.29052734 C53.19650894 86.27720367 54.1581546 86.26388 55.14894104 86.25015259 C64.22646841 86.12834456 73.30382926 86.03849454 82.38198948 85.97965431 C87.04887098 85.94838613 91.71509098 85.90599681 96.3815918 85.83789062 C100.88796901 85.77253552 105.39371137 85.73678736 109.90052605 85.72126389 C111.61694263 85.71020635 113.33332577 85.6886127 115.0494709 85.656147 C130.18546957 85.38128318 130.18546957 85.38128318 134.78149414 89.07714844 C138.07739657 92.56079983 138.35592451 96.23458247 138.39599609 100.87207031 C138.40560364 101.77335663 138.41521118 102.67464294 138.42510986 103.60324097 C138.43148468 105.05333054 138.43148468 105.05333054 138.43798828 106.53271484 C138.44368835 107.53384308 138.44938843 108.53497131 138.45526123 109.56643677 C138.46469975 111.68295234 138.47124065 113.79948253 138.47509766 115.91601562 C138.48480635 119.14658317 138.5158422 122.3765152 138.54736328 125.60693359 C138.55389346 127.66552358 138.55914388 129.72411809 138.56298828 131.78271484 C138.57533508 132.74539276 138.58768188 133.70807068 138.60040283 134.69992065 C138.5830774 139.93946752 138.34706063 143.84892441 135.23486328 148.29052734 C131.61431779 150.82836017 127.7781745 150.55976249 123.52880859 150.51757812 C122.75769241 150.51787018 121.98657623 150.51816223 121.1920929 150.51846313 C118.64894268 150.51707227 116.10608718 150.50152262 113.56298828 150.48583984 C111.79750732 150.48210885 110.0320243 150.47926228 108.26654053 150.4772644 C103.62390406 150.46963477 98.9813931 150.44999202 94.33880615 150.42785645 C89.59974871 150.4073836 84.86067096 150.39825961 80.12158203 150.38818359 C70.82595403 150.36674551 61.5304191 150.33261762 52.23486328 150.29052734 C52.24485603 151.66115829 52.24485603 151.66115829 52.25505066 153.05947876 C52.31522399 161.68124213 52.36086935 170.30293471 52.3902998 178.92486 C52.40593907 183.35722454 52.42714548 187.78941521 52.46118164 192.22167969 C52.49383726 196.50106891 52.51172937 200.78029114 52.51949501 205.05979538 C52.5250274 206.69043989 52.53583088 208.32107552 52.55205345 209.95164871 C52.57391062 212.24010033 52.57682681 214.52786662 52.57543945 216.81640625 C52.58543221 218.76832382 52.58543221 218.76832382 52.59562683 220.75967407 C52.20056716 224.62618926 51.29143301 227.0099825 49.23486328 230.29052734 C45.95053801 232.48007752 44.92615454 232.5527617 41.10839844 232.59692383 C40.06366364 232.61291122 39.01892883 232.62889862 37.9425354 232.64537048 C36.81439423 232.65073318 35.68625305 232.65609589 34.52392578 232.66162109 C33.36363861 232.67064957 32.20335144 232.67967804 31.00790405 232.6889801 C28.5516824 232.70349741 26.09542194 232.712373 23.63916016 232.71606445 C19.88133571 232.72795938 16.12515347 232.77713299 12.36767578 232.82763672 C9.98226714 232.8371008 7.5968484 232.8443359 5.21142578 232.84912109 C4.08733307 232.86865341 2.96324036 232.88818573 1.80508423 232.90830994 C-6.88187536 232.85807681 -6.88187536 232.85807681 -9.95117188 229.81811523 C-10.54978027 228.98401123 -11.14838867 228.14990723 -11.76513672 227.29052734 C-12.09513672 226.96052734 -12.42513672 226.63052734 -12.76513672 226.29052734 C-12.86008405 223.91751865 -12.89072991 221.57374032 -12.87866211 219.20043945 C-12.87880814 218.45902206 -12.87895416 217.71760468 -12.87910461 216.95372009 C-12.87840537 214.49174114 -12.87061246 212.02983691 -12.86279297 209.56787109 C-12.86092883 207.86536195 -12.85950491 206.16285228 -12.85850525 204.46034241 C-12.85467974 199.97059661 -12.84484918 195.48088296 -12.83380127 190.9911499 C-12.82358785 186.41321243 -12.81900778 181.83526979 -12.81396484 177.25732422 C-12.80322694 168.26837777 -12.78615013 159.27945523 -12.76513672 150.29052734 C-13.75627975 150.3016304 -14.74742279 150.31273346 -15.76860046 150.32417297 C-25.11169245 150.42555554 -34.45467276 150.50049578 -43.79819012 150.5495882 C-48.60177737 150.57567589 -53.40492038 150.61105867 -58.20825195 150.66772461 C-62.84427566 150.72207416 -67.47987224 150.75195412 -72.11618996 150.76491356 C-73.88446591 150.77414819 -75.65271862 150.79218164 -77.42081261 150.81917763 C-79.89897438 150.85550846 -82.37537429 150.86047122 -84.85375977 150.8581543 C-85.94888382 150.88511887 -85.94888382 150.88511887 -87.06613159 150.91262817 C-91.00608217 150.87280417 -92.61120653 150.41707921 -95.69709778 147.88005066 C-98.39627024 144.50024485 -98.89105556 142.96501448 -98.91040039 138.73657227 C-98.91678024 137.79186569 -98.9231601 136.84715912 -98.92973328 135.87382507 C-98.9308461 134.84989151 -98.93195892 133.82595795 -98.93310547 132.77099609 C-98.93643387 131.7202742 -98.93976227 130.66955231 -98.94319153 129.58699036 C-98.94826158 127.36016275 -98.95059983 125.13332752 -98.95043945 122.90649414 C-98.95262105 119.50247612 -98.97076261 116.09878464 -98.98974609 112.69482422 C-98.99268098 110.53271595 -98.99466514 108.37060615 -98.99560547 106.20849609 C-99.00279099 105.19063522 -99.0099765 104.17277435 -99.01737976 103.12406921 C-99.01430313 102.16990616 -99.0112265 101.2157431 -99.00805664 100.23266602 C-99.00948166 99.39708664 -99.01090668 98.56150726 -99.01237488 97.7006073 C-98.730262 94.95056826 -97.89386874 92.80183848 -96.76513672 90.29052734 C-96.10513672 90.29052734 -95.44513672 90.29052734 -94.76513672 90.29052734 C-94.76513672 89.63052734 -94.76513672 88.97052734 -94.76513672 88.29052734 C-91.05065066 85.8879595 -87.42244325 86.02051724 -83.15087891 86.06347656 C-82.3895163 86.06318451 -81.62815369 86.06289246 -80.84371948 86.06259155 C-78.33303336 86.06398229 -75.82264586 86.0795313 -73.31201172 86.09521484 C-71.56895103 86.09894589 -69.82588824 86.10179243 -68.08282471 86.10379028 C-63.49937124 86.11141955 -58.91604491 86.13106198 -54.3326416 86.15319824 C-49.65390747 86.17367188 -44.97515275 86.18279525 -40.29638672 86.19287109 C-31.11924759 86.21430852 -21.94220273 86.24843596 -12.76513672 86.29052734 C-12.77401917 85.32666107 -12.78290161 84.3627948 -12.79205322 83.36972046 C-12.87321227 74.27707884 -12.9331372 65.1845109 -12.97238541 56.09158897 C-12.99324188 51.41702529 -13.02152396 46.7427545 -13.06689453 42.06835938 C-13.11042168 37.55553949 -13.13428842 33.04300097 -13.14464569 28.52998734 C-13.15202475 26.81000974 -13.16643451 25.09004718 -13.18805695 23.37018967 C-13.21718301 20.95706913 -13.221089 18.54510455 -13.21923828 16.13183594 C-13.23361938 15.42404999 -13.24800049 14.71626404 -13.26281738 13.98703003 C-13.22133494 8.97357994 -11.98123898 6.10493826 -8.76513672 2.29052734 C-5.86405211 0.27415812 -3.48990443 0.03222053 0 0 Z M14.23486328 94.29052734 C13.73663232 96.21018383 13.73663232 96.21018383 13.72314453 98.30224609 C13.68769531 99.05957031 13.65224609 99.81689453 13.61572266 100.59716797 C13.59316406 101.38285156 13.57060547 102.16853516 13.54736328 102.97802734 C13.51320313 103.7753125 13.47904297 104.57259766 13.44384766 105.39404297 C13.36148224 107.35904639 13.29649261 109.32476431 13.23486328 111.29052734 C12.04248047 111.33951172 10.85009766 111.38849609 9.62158203 111.43896484 C8.0551526 111.51400338 6.48874749 111.58955075 4.92236328 111.66552734 C4.13667969 111.69646484 3.35099609 111.72740234 2.54150391 111.75927734 C1.78417969 111.79794922 1.02685547 111.83662109 0.24658203 111.87646484 C-0.44991455 111.90788574 -1.14641113 111.93930664 -1.86401367 111.97167969 C-4.09046411 112.21170987 -4.09046411 112.21170987 -6.76513672 114.29052734 C-7.30035953 118.39622408 -7.30035953 118.39622408 -5.50610352 121.96362305 C-3.33983138 123.61468027 -2.23290329 123.64090536 0.46533203 123.58349609 C1.66899414 123.56899414 1.66899414 123.56899414 2.89697266 123.55419922 C3.73035156 123.5290625 4.56373047 123.50392578 5.42236328 123.47802734 C6.26734375 123.46449219 7.11232422 123.45095703 7.98291016 123.43701172 C10.06716712 123.40168533 12.15109605 123.34787874 14.23486328 123.29052734 C14.16525391 125.06169922 14.16525391 125.06169922 14.09423828 126.86865234 C14.05671379 128.42591869 14.02031435 129.98321242 13.98486328 131.54052734 C13.95134766 132.31783203 13.91783203 133.09513672 13.88330078 133.89599609 C13.791469 138.70792446 13.791469 138.70792446 16.11767578 142.84521484 C18.10136808 144.51564382 18.10136808 144.51564382 20.35986328 144.16552734 C22.4181942 143.33502514 22.4181942 143.33502514 24.23486328 141.29052734 C24.60317409 139.35794879 24.60317409 139.35794879 24.64892578 137.15771484 C24.68759766 136.35205078 24.72626953 135.54638672 24.76611328 134.71630859 C24.81251953 133.45367187 24.81251953 133.45367187 24.85986328 132.16552734 C24.89853516 131.31603516 24.93720703 130.46654297 24.97705078 129.59130859 C25.07142822 127.49141051 25.15423914 125.39099844 25.23486328 123.29052734 C26.49943359 123.33693359 27.76400391 123.38333984 29.06689453 123.43115234 C30.72702719 123.46866947 32.38718536 123.50506969 34.04736328 123.54052734 C35.29743164 123.59080078 35.29743164 123.59080078 36.57275391 123.64208984 C41.36637111 123.84636543 41.36637111 123.84636543 45.30908203 121.47021484 C46.6487594 118.31603775 46.35077934 116.498786 45.23486328 113.29052734 C41.10982812 110.95999901 37.03144927 111.05085152 32.42236328 111.16552734 C31.72949219 111.17455078 31.03662109 111.18357422 30.32275391 111.19287109 C28.62663933 111.21626578 26.93070457 111.25213094 25.23486328 111.29052734 C25.18587891 110.01435547 25.13689453 108.73818359 25.08642578 107.42333984 C25.01140137 105.75404663 24.9358534 104.08477688 24.85986328 102.41552734 C24.82892578 101.57376953 24.79798828 100.73201172 24.76611328 99.86474609 C24.72744141 99.05908203 24.68876953 98.25341797 24.64892578 97.42333984 C24.60179443 96.30789795 24.60179443 96.30789795 24.55371094 95.16992188 C24.38066777 93.05041761 24.38066777 93.05041761 22.23486328 91.29052734 C18.30491276 90.78668753 16.690157 91.19202445 14.23486328 94.29052734 Z " fill="#171B1B" transform="translate(228.76513671875,144.70947265625)"/>
<path d="M0 0 C0.93577881 0.07839111 1.87155762 0.15678223 2.83569336 0.23754883 C7.97889965 0.71852831 12.65069254 1.51700801 17.5625 3.125 C17.5625 4.115 17.5625 5.105 17.5625 6.125 C16.5725 6.125 15.5825 6.125 14.5625 6.125 C14.5625 6.785 14.5625 7.445 14.5625 8.125 C14.02882813 8.393125 13.49515625 8.66125 12.9453125 8.9375 C8.51652231 11.2668291 4.52929795 13.80044919 0.625 16.9375 C-0.22707031 17.61683594 -1.07914063 18.29617187 -1.95703125 18.99609375 C-4.45106126 21.04649046 -4.45106126 21.04649046 -6.44921875 23.34765625 C-13.79618917 30.83043019 -22.50926612 30.19315046 -32.3828125 30.71875 C-60.39320667 32.29187666 -89.58184156 46.14414476 -109.58203125 65.5078125 C-111.4375 67.125 -111.4375 67.125 -113.4375 67.125 C-113.4375 67.785 -113.4375 68.445 -113.4375 69.125 C-115.0662969 70.85251186 -116.72037902 72.4888351 -118.4375 74.125 C-119.69156278 75.35002132 -120.94146669 76.57931239 -122.1875 77.8125 C-122.78046875 78.39386719 -123.3734375 78.97523438 -123.984375 79.57421875 C-125.53391804 81.08013974 -125.53391804 81.08013974 -126.4375 83.125 C-127.0975 83.125 -127.7575 83.125 -128.4375 83.125 C-128.67339844 83.81464844 -128.90929687 84.50429687 -129.15234375 85.21484375 C-130.39805805 88.03568617 -131.9230504 90.37926416 -133.71240234 92.88110352 C-152.79407421 119.65116232 -160.05561492 153.56643257 -155.1796875 185.97265625 C-151.42527608 208.14682006 -142.00232384 228.99236794 -127.72265625 246.34765625 C-126.4375 248.125 -126.4375 248.125 -126.4375 250.125 C-125.7775 250.125 -125.1175 250.125 -124.4375 250.125 C-120.4375 254.59558824 -120.4375 254.59558824 -120.4375 257.125 C-119.7775 257.125 -119.1175 257.125 -118.4375 257.125 C-118.4375 257.785 -118.4375 258.445 -118.4375 259.125 C-117.7775 259.125 -117.1175 259.125 -116.4375 259.125 C-116.4375 259.785 -116.4375 260.445 -116.4375 261.125 C-115.60798828 261.48271484 -115.60798828 261.48271484 -114.76171875 261.84765625 C-111.89377439 263.42382063 -109.70588918 265.39757653 -107.25 267.5625 C-92.4443015 280.17708525 -76.14161443 288.43399102 -57.75 294.4375 C-57.01475098 294.68024658 -56.27950195 294.92299316 -55.52197266 295.1730957 C-43.84904037 298.80019831 -32.03533431 299.53587173 -19.875 299.5 C-19.17639862 299.49945618 -18.47779724 299.49891235 -17.75802612 299.49835205 C-5.95115939 299.45628023 5.19145446 298.44262157 16.5625 295.125 C17.63612793 294.81949219 17.63612793 294.81949219 18.73144531 294.5078125 C31.99964501 290.60504654 45.31740582 284.51143845 56.4921875 276.31640625 C59.5625 274.125 59.5625 274.125 61.5625 274.125 C61.5625 273.465 61.5625 272.805 61.5625 272.125 C63.0234375 270.8359375 63.0234375 270.8359375 64.9375 269.5 C65.56398438 269.05398438 66.19046875 268.60796875 66.8359375 268.1484375 C68.5625 267.125 68.5625 267.125 70.5625 267.125 C70.5625 266.465 70.5625 265.805 70.5625 265.125 C72.06640625 263.6796875 72.06640625 263.6796875 74.125 262 C77.88006613 258.83187138 81.01515657 255.43069764 84.1171875 251.62890625 C84.59414063 251.13261719 85.07109375 250.63632812 85.5625 250.125 C86.2225 250.125 86.8825 250.125 87.5625 250.125 C87.5625 249.465 87.5625 248.805 87.5625 248.125 C88.2225 248.125 88.8825 248.125 89.5625 248.125 C89.93375 246.9184375 89.93375 246.9184375 90.3125 245.6875 C90.725 244.841875 91.1375 243.99625 91.5625 243.125 C93.640625 242.46484375 93.640625 242.46484375 95.5625 242.125 C100.78995207 255.06916703 99.69221899 268.37842553 94.5625 281.125 C94.15837891 282.30449219 94.15837891 282.30449219 93.74609375 283.5078125 C86.83098807 299.65270359 60.09700047 311.13987002 44.9921875 317.7890625 C15.52071618 329.26883835 -15.21050829 332.57590606 -46.4375 328.125 C-48.39429688 327.85042969 -48.39429688 327.85042969 -50.390625 327.5703125 C-71.72302115 324.07249046 -92.24277746 315.71900553 -110.4375 304.125 C-111.35015625 303.61582031 -112.2628125 303.10664063 -113.203125 302.58203125 C-114.30914062 301.86080078 -114.30914062 301.86080078 -115.4375 301.125 C-115.4375 300.465 -115.4375 299.805 -115.4375 299.125 C-117.4175 298.465 -119.3975 297.805 -121.4375 297.125 C-121.4375 296.465 -121.4375 295.805 -121.4375 295.125 C-121.99953125 294.8671875 -122.5615625 294.609375 -123.140625 294.34375 C-125.70454579 292.98330223 -127.88976365 291.39711038 -130.1875 289.625 C-130.98671875 289.0165625 -131.7859375 288.408125 -132.609375 287.78125 C-133.21265625 287.2346875 -133.8159375 286.688125 -134.4375 286.125 C-134.4375 285.465 -134.4375 284.805 -134.4375 284.125 C-135.365625 283.75375 -135.365625 283.75375 -136.3125 283.375 C-138.78818687 281.91871361 -139.38875002 280.74687494 -140.4375 278.125 C-141.0975 278.125 -141.7575 278.125 -142.4375 278.125 C-145.21607869 275.14081824 -147.6898731 271.90685803 -150.20410156 268.69824219 C-151.35370133 267.23188808 -152.51620659 265.77567712 -153.6796875 264.3203125 C-169.96342686 243.40063311 -180.59972422 219.17192728 -185.4375 193.125 C-185.70361084 191.7786145 -185.70361084 191.7786145 -185.97509766 190.4050293 C-186.54594783 186.35573039 -186.63707901 182.39314687 -186.67578125 178.30859375 C-186.68552979 177.46328598 -186.69527832 176.61797821 -186.70532227 175.74705505 C-187.02596216 140.7654432 -187.02596216 140.7654432 -182.4375 125.125 C-182.25026367 124.45549316 -182.06302734 123.78598633 -181.87011719 123.09619141 C-173.69126985 94.41372248 -157.45442023 69.04359546 -136.4375 48.125 C-135.94314453 47.62806641 -135.44878906 47.13113281 -134.93945312 46.61914062 C-117.53309078 29.30828644 -95.72807667 15.86926123 -72.4375 8.125 C-70.60058594 7.48304687 -70.60058594 7.48304687 -68.7265625 6.828125 C-46.50691263 -0.71452744 -23.25148784 -2.00758529 0 0 Z " fill="#1C201F" transform="translate(268.4375,96.875)"/>
<path d="M0 0 C1.12063843 0.80497925 1.12063843 0.80497925 2.26391602 1.6262207 C7.46425905 5.41488928 12.30250857 9.41705362 16.96484375 13.85546875 C18.66227331 15.57159364 18.66227331 15.57159364 20.75 16.5 C20.75 17.16 20.75 17.82 20.75 18.5 C21.41 18.5 22.07 18.5 22.75 18.5 C22.75 19.16 22.75 19.82 22.75 20.5 C23.41 20.5 24.07 20.5 24.75 20.5 C24.75 21.16 24.75 21.82 24.75 22.5 C25.41 22.5 26.07 22.5 26.75 22.5 C26.75 23.16 26.75 23.82 26.75 24.5 C27.41 24.5 28.07 24.5 28.75 24.5 C30.56401482 26.58777162 32.26089777 28.68066075 33.9375 30.875 C34.43290283 31.51622803 34.92830566 32.15745605 35.4387207 32.81811523 C39.37133855 37.93839777 43.18520583 43.11524066 46.75 48.5 C47.37261719 49.42425781 47.99523437 50.34851563 48.63671875 51.30078125 C71.24361455 86.25486179 78.23104544 129.15220737 70.08203125 169.83203125 C67.00143667 183.63660479 62.13143934 196.8870209 55.75 209.5 C55.42 210.16 55.09 210.82 54.75 211.5 C51.75 210.5 51.75 210.5 50.69433594 208.98461914 C50.37754883 208.34129639 50.06076172 207.69797363 49.734375 207.03515625 C49.37327637 206.32230469 49.01217773 205.60945312 48.64013672 204.875 C48.2638916 204.111875 47.88764648 203.34875 47.5 202.5625 C44.87520385 197.35407247 42.25434218 192.59862433 38.625 188 C36.47331367 185.00960531 35.27308946 183.15748426 35.5625 179.4375 C35.91047772 177.78088813 36.31715229 176.13648839 36.75 174.5 C37.07035135 173.11158144 37.38635567 171.72215634 37.69921875 170.33203125 C38.52369129 166.70675988 39.38998522 163.0937786 40.28515625 159.48535156 C40.43855469 158.83018555 40.59195313 158.17501953 40.75 157.5 C40.92942139 156.7354248 41.10884277 155.97084961 41.29370117 155.18310547 C46.75008728 123.09873773 37.41931304 89.25693691 18.95092773 62.92407227 C7.03830031 46.4156466 -7.82346381 30.7132681 -26.25 21.5 C-26.25 20.84 -26.25 20.18 -26.25 19.5 C-26.81460937 19.37689453 -27.37921875 19.25378906 -27.9609375 19.12695312 C-30.41253301 18.45548371 -32.56774113 17.5340723 -34.875 16.46875 C-35.74640625 16.07042969 -36.6178125 15.67210937 -37.515625 15.26171875 C-39.33854167 14.42057292 -41.16145833 13.57942708 -42.984375 12.73828125 C-43.85578125 12.33996094 -44.7271875 11.94164062 -45.625 11.53125 C-46.41648437 11.16580078 -47.20796875 10.80035156 -48.0234375 10.42382812 C-50.09124873 9.56586785 -52.06639705 8.97610521 -54.25 8.5 C-54.25 7.18 -54.25 5.86 -54.25 4.5 C-37.0299972 -3.45993966 -16.7966969 -12.31257033 0 0 Z " fill="#1D2020" transform="translate(343.25,126.5)"/>
<path d="M0 0 C0.66 0.33 1.32 0.66 2 1 C1.67 1.99 1.34 2.98 1 4 C1.38932856 6.14255793 1.38932856 6.14255793 2 8 C0.68 8.33 -0.64 8.66 -2 9 C-2.33 33.75 -2.66 58.5 -3 84 C-3.33 84 -3.66 84 -4 84 C-4.09276471 73.93376677 -4.16379786 63.86763558 -4.20724869 53.80106163 C-4.22810516 49.12649795 -4.25638724 44.45222716 -4.30175781 39.77783203 C-4.34528496 35.26501215 -4.3691517 30.75247363 -4.37950897 26.23945999 C-4.38688804 24.51948239 -4.40129779 22.79951983 -4.42292023 21.07966232 C-4.45204629 18.66654179 -4.45595228 16.2545772 -4.45410156 13.84130859 C-4.46848267 13.13352264 -4.48286377 12.42573669 -4.49768066 11.69650269 C-4.4546379 6.49447754 -3.11045087 3.95967916 0 0 Z " fill="#2F2F32" transform="translate(220,147)"/>
<path d="M0 0 C0.66 0.33 1.32 0.66 2 1 C2 1.66 2 2.32 2 3 C3.32 3.66 4.64 4.32 6 5 C5.01 5.66 4.02 6.32 3 7 C3 7.99 3 8.98 3 10 C3.66 10 4.32 10 5 10 C5 10.66 5 11.32 5 12 C5.66 12 6.32 12 7 12 C7.33 11.34 7.66 10.68 8 10 C8.66 11.65 9.32 13.3 10 15 C5.65328707 13.58632741 1.3864361 12.02739359 -2.875 10.375 C-4.02742188 9.92898437 -5.17984375 9.48296875 -6.3671875 9.0234375 C-7.23601562 8.68570313 -8.10484375 8.34796875 -9 8 C-9 6.68 -9 5.36 -9 4 C-7.54618103 3.30300448 -6.08677047 2.61766134 -4.625 1.9375 C-3.40683594 1.36322266 -3.40683594 1.36322266 -2.1640625 0.77734375 C-1.44992187 0.52082031 -0.73578125 0.26429687 0 0 Z " fill="#222325" transform="translate(298,127)"/>
<path d="M0 0 C0.99 0 1.98 0 3 0 C4.31626692 3.61973402 5 6.09567131 5 10 C4.34 10 3.68 10 3 10 C2.67 10.66 2.34 11.32 2 12 C0.68 12 -0.64 12 -2 12 C-2.33 11.01 -2.66 10.02 -3 9 C-4.32 9.33 -5.64 9.66 -7 10 C-7 9.34 -7 8.68 -7 8 C-6.34 8 -5.68 8 -5 8 C-5 7.34 -5 6.68 -5 6 C-4.34 6 -3.68 6 -3 6 C-2.690625 5.195625 -2.38125 4.39125 -2.0625 3.5625 C-1 1 -1 1 0 0 Z " fill="#383939" transform="translate(361,339)"/>
<path d="M0 0 C0.99 0.66 1.98 1.32 3 2 C0.75335738 3.31855095 -1.49697306 4.62993972 -3.75 5.9375 C-4.70132812 6.49727539 -4.70132812 6.49727539 -5.671875 7.06835938 C-8.76291632 8.85536764 -11.51467668 10.24885273 -15 11 C-15 10.01 -15 9.02 -15 8 C-14.01 7.67 -13.02 7.34 -12 7 C-10.77479736 3.99152582 -10.77479736 3.99152582 -10 1 C-9.67 2.32 -9.34 3.64 -9 5 C-8.01 4.67 -7.02 4.34 -6 4 C-5.67 3.01 -5.34 2.02 -5 1 C-4.67 1.66 -4.34 2.32 -4 3 C-2.68 2.67 -1.36 2.34 0 2 C0 1.34 0 0.68 0 0 Z " fill="#525352" transform="translate(332,401)"/>
<path d="M0 0 C2.5 2.3125 2.5 2.3125 5 5 C5 5.99 5 6.98 5 8 C2.69 8 0.38 8 -2 8 C-2 4.79604584 -1.25664978 2.90600261 0 0 Z " fill="#3B3B3B" transform="translate(371,151)"/>
<path d="M0 0 C0.66 0.33 1.32 0.66 2 1 C1.67 1.99 1.34 2.98 1 4 C1.38932856 6.14255793 1.38932856 6.14255793 2 8 C0.68 8.33 -0.64 8.66 -2 9 C-2.33 10.65 -2.66 12.3 -3 14 C-3.33 14 -3.66 14 -4 14 C-4.43177893 7.73920552 -3.92739438 4.90924297 0 0 Z " fill="#3C3C3E" transform="translate(220,147)"/>
<path d="M0 0 C0.33 0.66 0.66 1.32 1 2 C1.66 2.33 2.32 2.66 3 3 C-0.63 5.31 -4.26 7.62 -8 10 C-8.33 8.68 -8.66 7.36 -9 6 C-7.02 5.34 -5.04 4.68 -3 4 C-3 3.34 -3 2.68 -3 2 C-2.01 1.34 -1.02 0.68 0 0 Z " fill="#545454" transform="translate(181,141)"/>
<path d="M0 0 C0.66 0.33 1.32 0.66 2 1 C0.68 2.32 -0.64 3.64 -2 5 C-1.34 5.33 -0.68 5.66 0 6 C-0.99 6 -1.98 6 -3 6 C-3 5.34 -3 4.68 -3 4 C-3.66 4 -4.32 4 -5 4 C-4.67 4.99 -4.34 5.98 -4 7 C-5.65 7.33 -7.3 7.66 -9 8 C-9 6.68 -9 5.36 -9 4 C-7.54618103 3.30300448 -6.08677047 2.61766134 -4.625 1.9375 C-3.40683594 1.36322266 -3.40683594 1.36322266 -2.1640625 0.77734375 C-1.44992187 0.52082031 -0.73578125 0.26429687 0 0 Z " fill="#636464" transform="translate(298,127)"/>
<path d="M0 0 C1.77049689 -0.05410687 3.54146849 -0.09284119 5.3125 -0.125 C6.29863281 -0.14820312 7.28476562 -0.17140625 8.30078125 -0.1953125 C11 0 11 0 14 2 C14 2.99 14 3.98 14 5 C12.68 5 11.36 5 10 5 C9.67 4.34 9.34 3.68 9 3 C8.34 3 7.68 3 7 3 C7 2.34 7 1.68 7 1 C5.02 1.99 5.02 1.99 3 3 C2.01 2.01 1.02 1.02 0 0 Z " fill="#131313" transform="translate(268,99)"/>
<path d="M0 0 C0.33 0 0.66 0 1 0 C1.25 5.625 1.25 5.625 -1 9 C-1.99 8.67 -2.98 8.34 -4 8 C-3.67 6.02 -3.34 4.04 -3 2 C-2.34 2 -1.68 2 -1 2 C-0.67 1.34 -0.34 0.68 0 0 Z " fill="#171718" transform="translate(413,281)"/>
<path d="M0 0 C0.33 0 0.66 0 1 0 C0.67 3.63 0.34 7.26 0 11 C-0.66 10.34 -1.32 9.68 -2 9 C-2 8.01 -2 7.02 -2 6 C-2.66 6 -3.32 6 -4 6 C-3.67 4.68 -3.34 3.36 -3 2 C-2.34 2 -1.68 2 -1 2 C-0.67 1.34 -0.34 0.68 0 0 Z " fill="#4E4E4E" transform="translate(413,287)"/>
<path d="M0 0 C2.31 0.33 4.62 0.66 7 1 C7 1.99 7 2.98 7 4 C6.01 4 5.02 4 4 4 C4 4.66 4 5.32 4 6 C2.35 6.66 0.7 7.32 -1 8 C-1 7.01 -1 6.02 -1 5 C-0.01 4.67 0.98 4.34 2 4 C2 3.34 2 2.68 2 2 C1.34 1.34 0.68 0.68 0 0 Z " fill="#6B6B6B" transform="translate(279,99)"/>
<path d="M0 0 C0.57234375 0.21527344 1.1446875 0.43054688 1.734375 0.65234375 C-0.69969423 3.59884861 -2.581983 3.99117724 -6.265625 4.65234375 C-6.925625 5.31234375 -7.585625 5.97234375 -8.265625 6.65234375 C-8.925625 5.99234375 -9.585625 5.33234375 -10.265625 4.65234375 C-9.02618224 3.78292881 -7.77355441 2.93228918 -6.515625 2.08984375 C-5.81953125 1.61417969 -5.1234375 1.13851563 -4.40625 0.6484375 C-2.265625 -0.34765625 -2.265625 -0.34765625 0 0 Z " fill="#4F5050" transform="translate(324.265625,375.34765625)"/>
<path d="M0 0 C0.99 0.33 1.98 0.66 3 1 C2.01 2.98 1.02 4.96 0 7 C-0.99 6.67 -1.98 6.34 -3 6 C-3.6875 3.9375 -3.6875 3.9375 -4 2 C-3.01 2 -2.02 2 -1 2 C-0.67 1.34 -0.34 0.68 0 0 Z " fill="#696769" transform="translate(398,331)"/>
<path d="M0 0 C0 3.57575896 -1.08840607 5.05295935 -3 8 C-4.5625 6.1875 -4.5625 6.1875 -6 4 C-5.67 3.01 -5.34 2.02 -5 1 C-3.68 1 -2.36 1 -1 1 C-0.67 0.67 -0.34 0.34 0 0 Z " fill="#4C4C4E" transform="translate(381,209)"/>
<path d="M0 0 C0.144375 0.598125 0.28875 1.19625 0.4375 1.8125 C0.8872439 3.56150404 1.42892341 5.28677023 2 7 C-0.375 8.5625 -0.375 8.5625 -3 10 C-3.66 9.67 -4.32 9.34 -5 9 C-5 8.34 -5 7.68 -5 7 C-4.01 6.67 -3.02 6.34 -2 6 C-0.77479736 2.99152582 -0.77479736 2.99152582 0 0 Z " fill="#3E4040" transform="translate(322,402)"/>
<path d="M0 0 C2.475 0.495 2.475 0.495 5 1 C4.01 1.495 4.01 1.495 3 2 C3.7763932 5.0745356 3.7763932 5.0745356 6 7 C5.01 8.485 5.01 8.485 4 10 C0 4.5 0 4.5 0 0 Z " fill="#383537" transform="translate(385,315)"/>
<path d="M0 0 C5.75 1.75 5.75 1.75 8 4 C7.01 4.33 6.02 4.66 5 5 C5 4.34 5 3.68 5 3 C4.54625 3.495 4.0925 3.99 3.625 4.5 C2 6 2 6 0 6 C0 4.02 0 2.04 0 0 Z " fill="#555857" transform="translate(186,382)"/>
<path d="M0 0 C0.66 1.32 1.32 2.64 2 4 C-0.31 4.33 -2.62 4.66 -5 5 C-5 3.68 -5 2.36 -5 1 C-3.35 0.67 -1.7 0.34 0 0 Z " fill="#171918" transform="translate(141,378)"/>
<path d="M0 0 C0.99 0 1.98 0 3 0 C3 2.64 3 5.28 3 8 C2.34 7.01 1.68 6.02 1 5 C0.01 5.495 0.01 5.495 -1 6 C-1.33 5.01 -1.66 4.02 -2 3 C-1.34 2.01 -0.68 1.02 0 0 Z " fill="#3F3F40" transform="translate(412,278)"/>
<path d="M0 0 C0 4.07546013 -1.55304448 5.80536362 -4 9 C-6.140625 10.18359375 -6.140625 10.18359375 -8 11 C-7.04454634 9.53977837 -6.08553322 8.08188532 -5.125 6.625 C-4.59132813 5.81289062 -4.05765625 5.00078125 -3.5078125 4.1640625 C-2 2 -2 2 0 0 Z " fill="#7A797A" transform="translate(120,158)"/>
<path d="M0 0 C4.95 0 9.9 0 15 0 C15 0.33 15 0.66 15 1 C13.25021843 1.16894443 11.50016388 1.33506309 9.75 1.5 C8.77546875 1.5928125 7.8009375 1.685625 6.796875 1.78125 C4.53697847 1.95800168 2.26679807 2 0 2 C0 1.34 0 0.68 0 0 Z " fill="#4F5050" transform="translate(264,98)"/>
<path d="M0 0 C0.66 0.33 1.32 0.66 2 1 C2 1.66 2 2.32 2 3 C2.66 3 3.32 3 4 3 C2.93453047 5.13093906 1.70840281 6.36587557 0 8 C-1.125 6.25 -1.125 6.25 -2 4 C-1.125 1.75 -1.125 1.75 0 0 Z " fill="#3E4040" transform="translate(140,344)"/>
<path d="M0 0 C0.99 0.33 1.98 0.66 3 1 C1.35 2.98 -0.3 4.96 -2 7 C-2.6875 5.1875 -2.6875 5.1875 -3 3 C-1.5625 1.25 -1.5625 1.25 0 0 Z " fill="#575858" transform="translate(150,166)"/>
<path d="M0 0 C0.33 0.66 0.66 1.32 1 2 C-1.36292656 4.52588702 -2.66462511 5.88820837 -6 7 C-5.8125 5.1875 -5.8125 5.1875 -5 3 C-2.4375 1.25 -2.4375 1.25 0 0 Z " fill="#555555" transform="translate(154,127)"/>
<path d="M0 0 C2.9375 0.375 2.9375 0.375 6 1 C6.33 1.66 6.66 2.32 7 3 C6.34 3 5.68 3 5 3 C5 3.66 5 4.32 5 5 C3.68 4.67 2.36 4.34 1 4 C0.67 2.68 0.34 1.36 0 0 Z " fill="#4A4A4A" transform="translate(329,120)"/>
<path d="M0 0 C0.66 0.33 1.32 0.66 2 1 C-0.97 2.65 -3.94 4.3 -7 6 C-7.66 5.34 -8.32 4.68 -9 4 C-7.54618103 3.30300448 -6.08677047 2.61766134 -4.625 1.9375 C-3.40683594 1.36322266 -3.40683594 1.36322266 -2.1640625 0.77734375 C-1.44992188 0.52082031 -0.73578125 0.26429687 0 0 Z " fill="#6D6D6E" transform="translate(186,109)"/>
<path d="M0 0 C0.99 0.33 1.98 0.66 3 1 C3 1.66 3 2.32 3 3 C3.66 3 4.32 3 5 3 C5.33 2.34 5.66 1.68 6 1 C6.66 2.65 7.32 4.3 8 6 C4.08788267 4.84414715 1.1254959 3.64465038 -2 1 C-1.34 0.67 -0.68 0.34 0 0 Z " fill="#666667" transform="translate(300,136)"/>
<path d="M0 0 C2.31 0.66 4.62 1.32 7 2 C7 2.33 7 2.66 7 3 C1.06 3.495 1.06 3.495 -5 4 C-3.68 3.67 -2.36 3.34 -1 3 C-0.67 2.01 -0.34 1.02 0 0 Z " fill="#5E5E5E" transform="translate(276,421)"/>
<path d="M0 0 C0.33 0.99 0.66 1.98 1 3 C-0.28965176 4.37562854 -1.62689293 5.70766393 -3 7 C-3.66 7 -4.32 7 -5 7 C-4.60196439 4.11424181 -4.20990931 3.17810487 -1.9375 1.25 C-1.298125 0.8375 -0.65875 0.425 0 0 Z " fill="#171717" transform="translate(116,168)"/>
<path d="M0 0 C0.99 0.33 1.98 0.66 3 1 C2.34 2.32 1.68 3.64 1 5 C0.01 5 -0.98 5 -2 5 C-1.34 3.35 -0.68 1.7 0 0 Z " fill="#131615" transform="translate(324,402)"/>
<path d="M0 0 C2.31 1.65 4.62 3.3 7 5 C3 6 3 6 1 5 C0.375 2.4375 0.375 2.4375 0 0 Z " fill="#666666" transform="translate(155,360)"/>
<path d="M0 0 C1.65 0 3.3 0 5 0 C5.33 0.66 5.66 1.32 6 2 C5.01 2 4.02 2 3 2 C3 3.65 3 5.3 3 7 C1.25372522 4.38058783 0.61277612 2.96175123 0 0 Z " fill="#525253" transform="translate(378,218)"/>
<path d="M0 0 C0.99 0.99 1.98 1.98 3 3 C1.625 4.5 1.625 4.5 0 6 C-0.66 6 -1.32 6 -2 6 C-1.34 4.02 -0.68 2.04 0 0 Z " fill="#474749" transform="translate(96,196)"/>
<path d="M0 0 C1.32 0 2.64 0 4 0 C4.33 0.99 4.66 1.98 5 3 C3.35 3.33 1.7 3.66 0 4 C0 2.68 0 1.36 0 0 Z " fill="#5B5B5D" transform="translate(289,131)"/>
<path d="M0 0 C2.31 0 4.62 0 7 0 C7 0.66 7 1.32 7 2 C4.69 2.33 2.38 2.66 0 3 C0 2.01 0 1.02 0 0 Z " fill="#131615" transform="translate(320,122)"/>
<path d="M0 0 C3.465 1.485 3.465 1.485 7 3 C6.01 3.99 5.02 4.98 4 6 C3.67 5.01 3.34 4.02 3 3 C2.01 2.67 1.02 2.34 0 2 C0 1.34 0 0.68 0 0 Z " fill="#3F4140" transform="translate(267,106)"/>
</svg>
